<svg width="34" height="30" viewBox="0 0 34 30" fill="none" xmlns="http://www.w3.org/2000/svg">
<path d="M29.3192 2.6124C31.5849 4.85386 33.1278 7.70966 33.7529 10.8187C34.378 13.9277 34.0572 17.1502 32.831 20.0789C31.6049 23.0075 29.5284 25.5106 26.8643 27.2717C24.2002 29.0328 21.068 29.9728 17.8639 29.9728L17.8639 13.9454L29.3192 2.6124Z" fill="url(#paint0_linear_1529_27298)"/>
<path d="M17.4705 0.370372L27.5571 17.6543H7.38391L17.4705 0.370372Z" fill="url(#paint1_linear_1529_27298)" fill-opacity="0.5"/>
<path d="M53.9506 29.177V0H47.2952V29.177H53.9506Z" fill="#7962FA"/>
<path d="M66.2414 17.4486C66.2414 15.3909 67.5725 13.8683 69.6523 13.8683C71.9401 13.8683 73.0216 15.3909 73.0216 17.4074V29.177H79.3443V16.3375C79.3443 11.8519 77.0149 8.1893 71.8153 8.1893C69.6939 8.1893 67.1565 9.1358 66.0334 11.07V8.72428H59.9187V29.177H66.2414V17.4486Z" fill="#7962FA"/>
<path d="M104.429 8.72428H97.7738L93.3645 21.4403L88.5809 8.72428H81.7175L90.2032 29.177H96.5675L104.429 8.72428Z" fill="#7962FA"/>
<path d="M105.944 23.3745C106.11 25.6379 108.19 29.7942 114.679 29.7942C120.211 29.7942 122.915 26.3786 122.915 22.8807C122.915 19.8765 120.835 17.3251 116.551 16.4609L113.805 15.9259C112.89 15.7613 112.183 15.2675 112.183 14.4033C112.183 13.3333 113.223 12.6337 114.429 12.6337C116.343 12.6337 117.216 13.786 117.383 15.144L122.624 14.1975C122.416 11.8107 120.336 8.107 114.346 8.107C109.729 8.107 106.401 11.1523 106.401 14.8971C106.401 17.7778 108.148 20.2469 112.557 21.1934L114.928 21.7284C116.467 22.0576 116.967 22.6749 116.967 23.4156C116.967 24.321 116.176 25.1852 114.554 25.1852C112.391 25.1852 111.393 23.8272 111.31 22.428L105.944 23.3745Z" fill="#7962FA"/>
<path d="M134.596 2.7572H128.939V5.39095C128.939 7.28395 127.899 8.72428 125.736 8.72428H124.696V14.1975H128.357V22.963C128.357 27.037 130.977 29.5473 135.262 29.5473C137.258 29.5473 138.298 29.0947 138.548 28.9712V23.786C138.173 23.8683 137.549 23.9918 136.884 23.9918C135.511 23.9918 134.596 23.5391 134.596 21.8519V14.1975H138.631V8.72428H134.596V2.7572Z" fill="#7962FA"/>
<path d="M152.352 24.0329C149.981 24.0329 147.693 22.3457 147.693 18.93C147.693 15.4733 149.981 13.8683 152.352 13.8683C154.764 13.8683 157.011 15.4733 157.011 18.93C157.011 22.3868 154.764 24.0329 152.352 24.0329ZM152.352 8.107C146.196 8.107 141.37 12.5926 141.37 18.93C141.37 25.2675 146.196 29.7942 152.352 29.7942C158.55 29.7942 163.333 25.2675 163.333 18.93C163.333 12.5926 158.55 8.107 152.352 8.107Z" fill="#7962FA"/>
<path d="M16.2226 30C13.0141 30 9.87761 29.0587 7.20982 27.2952C4.54202 25.5317 2.46273 23.0251 1.23488 20.0925C0.00702858 17.1598 -0.314233 13.9328 0.311721 10.8195C0.937674 7.70626 2.48273 4.84654 4.7515 2.60199L16.2226 13.9506V30Z" fill="url(#paint2_linear_1529_27298)"/>
<defs>
<linearGradient id="paint0_linear_1529_27298" x1="163.334" y1="-5.14713" x2="163.334" y2="30.0001" gradientUnits="userSpaceOnUse">
<stop stop-color="#B2A6F7" stop-opacity="0.6"/>
<stop offset="1" stop-color="#B2A6F7"/>
</linearGradient>
<linearGradient id="paint1_linear_1529_27298" x1="81.6667" y1="0" x2="81.6667" y2="21.6456" gradientUnits="userSpaceOnUse">
<stop stop-color="#9A8EE0"/>
<stop offset="1" stop-color="#9A8EE0" stop-opacity="0"/>
</linearGradient>
<linearGradient id="paint2_linear_1529_27298" x1="16.2226" y1="-2.09881" x2="16.2226" y2="30" gradientUnits="userSpaceOnUse">
<stop stop-color="#7164FC"/>
<stop offset="1" stop-color="#7962FA" stop-opacity="0.6"/>
</linearGradient>
</defs>
</svg>
