<svg width="32" height="32" viewBox="0 0 32 32" fill="none" xmlns="http://www.w3.org/2000/svg">
  <rect width="32" height="32" rx="6" fill="#09090b"/>
  <path d="M10 12C10 9.79086 11.7909 8 14 8H18C20.2091 8 22 9.79086 22 12C22 12.5523 21.5523 13 21 13C20.4477 13 20 12.5523 20 12C20 10.8954 19.1046 10 18 10H14C12.8954 10 12 10.8954 12 12C12 13.1046 12.8954 14 14 14H18C20.2091 14 22 15.7909 22 18V20C22 22.2091 20.2091 24 18 24H14C11.7909 24 10 22.2091 10 20C10 19.4477 10.4477 19 11 19C11.5523 19 12 19.4477 12 20C12 21.1046 12.8954 22 14 22H18C19.1046 22 20 21.1046 20 20V18C20 16.8954 19.1046 16 18 16H14C11.7909 16 10 14.2091 10 12Z" fill="#fafafa"/>
</svg>
